<svg width="400" height="150" viewBox="0 0 400 150" xmlns="http://www.w3.org/2000/svg">
  <defs>
    <linearGradient id="elemix-gradient" x1="0%" y1="0%" x2="100%" y2="100%">
      <stop offset="0%" style="stop-color:#A2D6F9" />
      <stop offset="100%" style="stop-color:#1E96FC" />
    </linearGradient>
    <linearGradient id="elemix-gradient-secondary" x1="0%" y1="0%" x2="100%" y2="100%">
      <stop offset="0%" style="stop-color:#FCF300" />
      <stop offset="100%" style="stop-color:#FFC600" />
    </linearGradient>
  </defs>
  
  <!-- The Icon -->
  <g transform="translate(75 30) scale(0.7)">
    <g stroke-width="7" stroke-linecap="round" fill="none">
      <ellipse cx="50" cy="50" rx="45" ry="18" stroke="url(#elemix-gradient)" transform="rotate(0 50 50)" />
      <ellipse cx="50" cy="50" rx="45" ry="18" stroke="url(#elemix-gradient-secondary)" transform="rotate(60 50 50)" />
      <ellipse cx="50" cy="50" rx="45" ry="18" stroke="url(#elemix-gradient)" transform="rotate(-60 50 50)" />
    </g>
    <path d="M 38 38 L 52 38 L 52 45 L 45 45 L 45 52 L 50 52 L 50 59 L 45 59 L 45 66 L 52 66 L 52 73 L 38 73 Z" fill="#072AC8" />
  </g>
  
  <!-- The Text -->
  <text 
    x="165" 
    y="85" 
    font-family="-apple-system, BlinkMacSystemFont, 'Segoe UI', Roboto, Helvetica, Arial, sans-serif" 
    font-size="60" 
    font-weight="bold" 
    fill="url(#elemix-text-gradient)">
    <tspan fill="#072AC8" >E<tspan fill="url(#elemix-gradient)">le</tspan></tspan><tspan fill="url(#elemix-gradient-secondary)">mix</tspan>
  </text>
</svg>

